<?xml version="1.0" standalone="no"?>
<!DOCTYPE svg PUBLIC "-//W3C//DTD SVG 20010904//EN"
 "http://www.w3.org/TR/2001/REC-SVG-20010904/DTD/svg10.dtd">
<svg version="1.0" xmlns="http://www.w3.org/2000/svg"
 width="700.000000pt" height="700.000000pt" viewBox="0 0 700.000000 700.000000"
 preserveAspectRatio="xMidYMid meet">
<metadata>
Created by potrace 1.14, written by Peter Selinger 2001-2017
</metadata>
<g transform="translate(0.000000,700.000000) scale(0.100000,-0.100000)"
fill="#000000" stroke="none">
<path d="M1629 6256 c-2 -2 -24 -7 -49 -10 -25 -3 -60 -10 -78 -15 -18 -5 -33
-10 -35 -9 -10 2 -106 -30 -167 -55 -319 -132 -576 -396 -696 -713 -30 -80
-62 -208 -71 -281 -11 -87 -7 -300 6 -364 6 -30 14 -69 17 -85 9 -52 63 -202
95 -266 121 -242 341 -459 582 -575 126 -61 308 -113 393 -113 28 0 34 -4 35
-22 3 -85 1 -1109 -2 -1112 -3 -3 -38 -12 -79 -20 -307 -64 -555 -270 -683
-566 -69 -159 -90 -383 -52 -557 72 -327 293 -579 612 -699 64 -24 80 -28 174
-44 56 -10 270 -7 324 4 233 49 430 173 576 363 86 111 161 290 184 442 20
126 -1 311 -51 455 -107 307 -416 564 -733 610 -19 3 -37 9 -40 15 -3 5 -6
260 -6 567 l0 557 30 4 c205 24 437 114 595 232 l65 48 631 -635 632 -636 -38
-56 c-108 -160 -159 -320 -165 -519 -8 -318 160 -634 428 -809 482 -312 1116
-138 1371 375 71 143 98 267 95 436 -2 186 -60 367 -168 525 -39 58 -186 212
-202 212 -4 0 -14 6 -21 13 -60 57 -253 143 -363 162 -16 2 -41 7 -55 10 -14
3 -74 6 -135 6 -188 1 -349 -45 -506 -144 l-84 -53 -632 636 -631 635 36 46
c101 129 207 358 228 494 3 22 7 42 9 45 8 14 19 155 18 242 -3 324 -133 629
-368 863 -186 185 -410 302 -668 349 -68 12 -348 21 -358 12z"/>
<path d="M5405 5953 c-194 -36 -337 -97 -469 -202 -176 -140 -297 -342 -341
-566 -13 -67 -15 -301 -2 -352 53 -211 133 -361 261 -489 150 -149 324 -238
529 -272 53 -8 226 -8 292 0 28 4 82 16 120 28 354 107 612 400 670 764 12 73
12 286 1 304 -3 5 -8 24 -11 43 -9 51 -45 158 -73 214 -130 263 -373 452 -662
515 -53 12 -273 21 -315 13z"/>
</g>
</svg>
